<svg width="143" height="40" viewBox="0 0 143 40" fill="none" xmlns="http://www.w3.org/2000/svg">
<g clip-path="url(#clip0_2_564)" filter="url(#filter0_d_2_564)">
<path d="M43.3027 9.3468H46.6839V23.0049H43.3027V9.3468ZM48.0251 17.8479C48.0251 14.47 50.0988 12.4545 53.2997 12.4545C56.5005 12.4545 58.5743 14.47 58.5743 17.8479C58.5743 21.2259 56.5455 23.2527 53.2997 23.2527C50.0537 23.2527 48.0251 21.2822 48.0251 17.8479ZM55.1818 17.8479C55.1818 15.9901 54.4492 14.8979 53.2997 14.8979C52.15 14.8979 51.4288 16.0239 51.4288 17.8479C51.4288 19.672 52.1388 20.7755 53.2997 20.7755C54.4605 20.7755 55.1818 19.7396 55.1818 17.8592V17.8479ZM59.8478 23.6693H63.0937C63.2482 24.0121 63.5094 24.296 63.8384 24.4786C64.1673 24.6612 64.5466 24.7328 64.9195 24.6826C66.2044 24.6826 66.8807 23.9846 66.8807 22.9712V21.0795H66.813C66.5436 21.6593 66.1065 22.1451 65.558 22.4743C65.0096 22.8034 64.375 22.9608 63.7361 22.9262C61.268 22.9262 59.6337 21.0457 59.6337 17.8142C59.6337 14.5826 61.189 12.5446 63.7813 12.5446C64.4401 12.5188 65.0911 12.6948 65.6471 13.0489C66.203 13.4032 66.6374 13.9186 66.8919 14.5263V12.6459H70.2731V22.8923C70.2731 25.3583 68.0978 26.8896 64.8858 26.8896C61.8991 26.8896 60.0395 25.5496 59.8478 23.6806V23.6693ZM66.8919 17.8367C66.8919 16.1928 66.1367 15.1568 64.9421 15.1568C63.7474 15.1568 63.0149 16.1815 63.0149 17.8367C63.0149 19.4919 63.7361 20.4264 64.9421 20.4264C66.148 20.4264 66.8919 19.5144 66.8919 17.8479V17.8367ZM71.5466 17.8367C71.5466 14.4587 73.6204 12.4432 76.8212 12.4432C80.022 12.4432 82.1071 14.4587 82.1071 17.8367C82.1071 21.2146 80.0784 23.2414 76.8212 23.2414C73.5641 23.2414 71.5466 21.2822 71.5466 17.8479V17.8367ZM78.7034 17.8367C78.7034 15.9788 77.9708 14.8866 76.8212 14.8866C75.6717 14.8866 75.0067 16.0239 75.0067 17.8592C75.0067 19.6945 75.7167 20.7868 76.8663 20.7868C78.0159 20.7868 78.7034 19.7396 78.7034 17.8592V17.8367ZM83.3919 10.1912C83.3831 9.85026 83.4757 9.51426 83.6582 9.22591C83.8408 8.93755 84.1049 8.70978 84.4171 8.57156C84.7293 8.43333 85.0756 8.39083 85.412 8.44944C85.7483 8.50806 86.0598 8.66514 86.3067 8.90075C86.5537 9.13639 86.725 9.44004 86.7991 9.77311C86.8731 10.1061 86.8465 10.4536 86.7226 10.7716C86.5988 11.0895 86.3832 11.3635 86.1032 11.5589C85.8232 11.7543 85.4916 11.8622 85.1501 11.869C84.9238 11.8845 84.6967 11.8531 84.4831 11.7768C84.2695 11.7005 84.074 11.5808 83.9089 11.4254C83.7438 11.2699 83.6126 11.0821 83.5237 10.8736C83.4347 10.665 83.3898 10.4404 83.3919 10.2138V10.1912ZM83.3919 12.6684H86.7731V23.0049H83.3919V12.6684ZM99.0471 17.8367C99.0471 21.2146 97.5479 23.14 94.9784 23.14C94.3194 23.1824 93.6631 23.0214 93.0991 22.6791C92.5342 22.3368 92.0887 21.8295 91.8223 21.2259H91.7546V26.3153H88.3735V12.6459H91.7546V14.4925H91.8223C92.0763 13.879 92.5133 13.3585 93.0742 13.0019C93.6346 12.6454 94.2919 12.4699 94.9553 12.4995C97.5479 12.5446 99.0915 14.4813 99.0915 17.8592L99.0471 17.8367ZM95.6659 17.8367C95.6659 16.1928 94.91 15.1456 93.727 15.1456C92.5435 15.1456 91.7884 16.204 91.7771 17.8367C91.7659 19.4694 92.5435 20.5166 93.727 20.5166C94.91 20.5166 95.6659 19.4919 95.6659 17.8592V17.8367ZM104.851 12.432C107.657 12.432 109.359 13.7607 109.438 15.8888H106.361C106.361 15.1568 105.753 14.6952 104.817 14.6952C103.881 14.6952 103.465 15.0555 103.465 15.5848C103.465 16.1139 103.837 16.2828 104.592 16.4405L106.755 16.8796C108.819 17.3187 109.697 18.152 109.697 19.7171C109.697 21.8565 107.747 23.2302 104.873 23.2302C101.999 23.2302 100.117 21.8565 99.9708 19.7509H103.228C103.33 20.5166 103.938 20.9669 104.93 20.9669C105.921 20.9669 106.373 20.6404 106.373 20.1C106.373 19.5594 106.057 19.4469 105.246 19.2779L103.296 18.8614C101.278 18.4448 100.219 17.3751 100.219 15.7987C100.242 13.7719 102.056 12.4545 104.851 12.4545V12.432ZM120.979 22.9824H117.721V21.057H117.654C117.475 21.7034 117.08 22.2693 116.535 22.6605C115.99 23.0517 115.327 23.2448 114.656 23.2076C114.142 23.2368 113.629 23.1555 113.149 22.9692C112.67 22.7828 112.235 22.4959 111.877 22.1276C111.518 21.7593 111.242 21.3184 111.068 20.8345C110.894 20.3507 110.827 19.8352 110.869 19.323V12.6459H114.251V18.5461C114.251 19.7734 114.882 20.4264 115.93 20.4264C116.176 20.427 116.419 20.375 116.642 20.2739C116.867 20.1729 117.067 20.0253 117.229 19.8408C117.391 19.6563 117.512 19.4393 117.583 19.2044C117.655 18.9695 117.675 18.7219 117.643 18.4785V12.6459H121.025L120.979 22.9824ZM122.613 12.6459H125.882V14.6389H125.949C126.129 14.001 126.515 13.4406 127.047 13.0453C127.579 12.65 128.228 12.4423 128.891 12.4545C129.566 12.4006 130.236 12.6023 130.769 13.0195C131.301 13.4368 131.657 14.0391 131.765 14.7064H131.833C132.037 14.032 132.46 13.4446 133.036 13.0368C133.612 12.6291 134.306 12.4242 135.011 12.4545C135.47 12.4391 135.929 12.5205 136.355 12.6934C136.781 12.8663 137.166 13.1269 137.485 13.4582C137.804 13.7896 138.05 14.1842 138.206 14.6165C138.362 15.0488 138.425 15.5091 138.392 15.9676V23.0049H135.011V16.8683C135.011 15.7424 134.503 15.2244 133.557 15.2244C133.346 15.2226 133.136 15.2661 132.944 15.3519C132.751 15.4377 132.579 15.5638 132.439 15.7217C132.299 15.8797 132.195 16.0658 132.133 16.2675C132.071 16.4691 132.053 16.6817 132.08 16.8909V23.0049H128.869V16.8233C128.869 15.7874 128.362 15.2244 127.437 15.2244C127.224 15.2245 127.013 15.2698 126.818 15.3573C126.624 15.4448 126.449 15.5727 126.307 15.7322C126.166 15.8919 126.06 16.0796 125.996 16.2832C125.933 16.4868 125.913 16.7016 125.938 16.9134V23.0049H122.557L122.613 12.6459Z" fill="#282938"/>
<path d="M33.8466 9.96612C33.273 8.65592 32.5139 7.43487 31.5924 6.3405C30.2304 4.67443 28.5306 3.31543 26.6049 2.35295C24.6792 1.39048 22.5713 0.846349 20.42 0.756375C18.2686 0.666399 16.1227 1.03262 14.1232 1.83093C12.1237 2.62925 10.3162 3.84155 8.81949 5.38807C7.32278 6.93457 6.17089 8.78022 5.4396 10.8035C4.70831 12.8268 4.41421 14.9819 4.57667 17.127C4.73912 19.272 5.35445 21.3584 6.38214 23.2487C7.40982 25.1391 8.82658 26.7906 10.5391 28.0945C11.638 28.9478 12.8523 29.6416 14.1457 30.155C15.9592 30.8975 17.9001 31.2799 19.8599 31.281C23.9053 31.2721 27.7822 29.6611 30.6406 26.8011C33.499 23.9411 35.1059 20.0656 35.1088 16.0239C35.1119 13.9392 34.682 11.8765 33.8466 9.96612ZM19.8486 3.85207C21.6086 3.85189 23.3472 4.23619 24.9429 4.97806C24.5538 5.14602 24.1447 5.26333 23.7257 5.32711C22.3468 5.52652 21.0695 6.16606 20.0843 7.15027C19.0992 8.13448 18.4591 9.41056 18.2594 10.7882C18.1718 11.5607 17.8201 12.2794 17.2637 12.823C16.7073 13.3666 15.9802 13.7018 15.2051 13.772C13.8263 13.9714 12.549 14.6109 11.5638 15.5951C10.5787 16.5794 9.93854 17.8555 9.73895 19.233C9.67137 19.9675 9.35766 20.6579 8.84858 21.1922C7.97021 19.338 7.57563 17.292 7.70155 15.2444C7.82746 13.197 8.46978 11.2146 9.56873 9.48167C10.6677 7.74887 12.1875 6.32194 13.9868 5.3337C15.7862 4.34546 17.8065 3.82802 19.8599 3.82956L19.8486 3.85207ZM10.5279 23.9059C10.6631 23.7819 10.7984 23.6693 10.9336 23.5342C11.9363 22.563 12.5799 21.281 12.7594 19.8973C12.8322 19.1195 13.1799 18.3931 13.74 17.848C14.279 17.2875 15.0045 16.9431 15.7799 16.8797C17.1588 16.6803 18.4361 16.0407 19.4212 15.0565C20.4064 14.0723 21.0465 12.7962 21.2461 11.4187C21.2949 10.6051 21.6444 9.83874 22.2266 9.26807C22.779 8.7184 23.5114 8.38652 24.2892 8.33348C25.5559 8.15936 26.7373 7.59677 27.6703 6.72333C28.7327 7.60393 29.6329 8.66328 30.3302 9.85359C30.2874 9.91136 30.2382 9.96425 30.1836 10.0112C29.6457 10.5767 28.9211 10.9286 28.1437 11.002C26.7634 11.1979 25.4842 11.8364 24.4984 12.8212C23.5126 13.8061 22.8736 15.0842 22.6775 16.4631C22.5981 17.2382 22.2528 17.9621 21.7003 18.5121C21.1478 19.062 20.4219 19.4043 19.6457 19.4807C18.2629 19.6786 16.9808 20.3169 15.9899 21.3007C14.9991 22.2845 14.3523 23.5614 14.1457 24.9417C14.0851 25.492 13.8959 26.0204 13.5935 26.4843C12.4371 25.7984 11.4014 24.9273 10.5279 23.9059ZM19.8486 28.2521C18.7049 28.2533 17.5668 28.0941 16.4675 27.7792C16.8435 27.0788 17.0879 26.3155 17.1887 25.5272C17.2678 24.7538 17.6113 24.0313 18.1616 23.4815C18.7118 22.9318 19.4351 22.5885 20.2093 22.5096C21.5901 22.3124 22.87 21.6739 23.8574 20.6895C24.8447 19.7051 25.4865 18.4277 25.6867 17.0486C25.7657 16.2752 26.1093 15.5526 26.6596 15.0029C27.2098 14.4531 27.933 14.1099 28.7073 14.0309C29.7464 13.8959 30.7368 13.5094 31.5924 12.905C32.0676 14.7042 32.1238 16.5883 31.757 18.4125C31.3901 20.2369 30.6099 21.953 29.476 23.4292C28.3422 24.9055 26.8849 26.1027 25.2161 26.929C23.5472 27.7552 21.7111 28.1886 19.8486 28.1958V28.2521Z" fill="#282938"/>
</g>
<defs>
<filter id="filter0_d_2_564" x="0" y="0" width="143" height="40" filterUnits="userSpaceOnUse" color-interpolation-filters="sRGB">
<feFlood flood-opacity="0" result="BackgroundImageFix"/>
<feColorMatrix in="SourceAlpha" type="matrix" values="0 0 0 0 0 0 0 0 0 0 0 0 0 0 0 0 0 0 127 0" result="hardAlpha"/>
<feOffset dy="4"/>
<feGaussianBlur stdDeviation="2"/>
<feComposite in2="hardAlpha" operator="out"/>
<feColorMatrix type="matrix" values="0 0 0 0 0 0 0 0 0 0 0 0 0 0 0 0 0 0 0.25 0"/>
<feBlend mode="normal" in2="BackgroundImageFix" result="effect1_dropShadow_2_564"/>
<feBlend mode="normal" in="SourceGraphic" in2="effect1_dropShadow_2_564" result="shape"/>
</filter>
<clipPath id="clip0_2_564">
<rect width="135" height="32" fill="white" transform="translate(4)"/>
</clipPath>
</defs>
</svg>
