<svg width="48" height="48" viewBox="0 0 48 48" fill="none" xmlns="http://www.w3.org/2000/svg">
<path d="M25.0305 13.9138L14.04 12.2443C13.53 12.1648 13.0095 12.3043 12.6195 12.6343C12.2295 12.9748 12 13.4638 12 13.9738V35.0443C12 35.5948 12.45 36.0448 13.0005 36.0448H16.251V30.7948C16.251 29.8243 17.031 29.0443 18.0015 29.0443H20.502C21.4725 29.0443 22.2525 29.8243 22.2525 30.7948V36.0448H26.502V15.6448C26.5005 14.7838 25.8795 14.0548 25.0305 13.9138ZM17.5005 26.7943H16.0005C15.5865 26.7943 15.2505 26.4583 15.2505 26.0443C15.2505 25.6303 15.5865 25.2943 16.0005 25.2943H17.5005C17.9145 25.2943 18.2505 25.6303 18.2505 26.0443C18.2505 26.4583 17.9145 26.7943 17.5005 26.7943ZM17.5005 23.7943H16.0005C15.5865 23.7943 15.2505 23.4583 15.2505 23.0443C15.2505 22.6303 15.5865 22.2943 16.0005 22.2943H17.5005C17.9145 22.2943 18.2505 22.6303 18.2505 23.0443C18.2505 23.4583 17.9145 23.7943 17.5005 23.7943ZM17.5005 20.7943H16.0005C15.5865 20.7943 15.2505 20.4583 15.2505 20.0443C15.2505 19.6303 15.5865 19.2943 16.0005 19.2943H17.5005C17.9145 19.2943 18.2505 19.6303 18.2505 20.0443C18.2505 20.4583 17.9145 20.7943 17.5005 20.7943ZM17.5005 17.7943H16.0005C15.5865 17.7943 15.2505 17.4583 15.2505 17.0443C15.2505 16.6303 15.5865 16.2943 16.0005 16.2943H17.5005C17.9145 16.2943 18.2505 16.6303 18.2505 17.0443C18.2505 17.4583 17.9145 17.7943 17.5005 17.7943ZM22.5 26.7943H21C20.586 26.7943 20.25 26.4583 20.25 26.0443C20.25 25.6303 20.586 25.2943 21 25.2943H22.5C22.914 25.2943 23.25 25.6303 23.25 26.0443C23.25 26.4583 22.914 26.7943 22.5 26.7943ZM22.5 23.7943H21C20.586 23.7943 20.25 23.4583 20.25 23.0443C20.25 22.6303 20.586 22.2943 21 22.2943H22.5C22.914 22.2943 23.25 22.6303 23.25 23.0443C23.25 23.4583 22.914 23.7943 22.5 23.7943ZM22.5 20.7943H21C20.586 20.7943 20.25 20.4583 20.25 20.0443C20.25 19.6303 20.586 19.2943 21 19.2943H22.5C22.914 19.2943 23.25 19.6303 23.25 20.0443C23.25 20.4583 22.914 20.7943 22.5 20.7943ZM22.5 17.7943H21C20.586 17.7943 20.25 17.4583 20.25 17.0443C20.25 16.6303 20.586 16.2943 21 16.2943H22.5C22.914 16.2943 23.25 16.6303 23.25 17.0443C23.25 17.4583 22.914 17.7943 22.5 17.7943Z" fill="#232536"/>
<path d="M34.6205 22.887L27.5 21.396V36.045H34.25C35.2145 36.045 36.0005 35.2605 36.0005 34.2945V24.597C36.0005 23.7705 35.4365 23.067 34.6205 22.887ZM32.2505 33.045H30.7505C30.3365 33.045 30.0005 32.709 30.0005 32.295C30.0005 31.881 30.3365 31.545 30.7505 31.545H32.2505C32.6645 31.545 33.0005 31.881 33.0005 32.295C33.0005 32.709 32.6645 33.045 32.2505 33.045ZM32.2505 30.045H30.7505C30.3365 30.045 30.0005 29.709 30.0005 29.295C30.0005 28.881 30.3365 28.545 30.7505 28.545H32.2505C32.6645 28.545 33.0005 28.881 33.0005 29.295C33.0005 29.709 32.6645 30.045 32.2505 30.045ZM32.2505 27.045H30.7505C30.3365 27.045 30.0005 26.709 30.0005 26.295C30.0005 25.881 30.3365 25.545 30.7505 25.545H32.2505C32.6645 25.545 33.0005 25.881 33.0005 26.295C33.0005 26.709 32.6645 27.045 32.2505 27.045Z" fill="#FFD050"/>
</svg>
