<svg width="48" height="48" viewBox="0 0 48 48" fill="none" xmlns="http://www.w3.org/2000/svg">
<g clip-path="url(#clip0_2_636)">
<path d="M31.3681 12.6682C31.052 12.2011 30.538 11.9541 29.9929 12.0065L25.1128 12.4785C24.5678 12.5312 24.1059 12.8729 23.8771 13.3926C23.6483 13.9123 23.7004 14.5015 24.0165 14.9686L24.2889 15.3711L18.2318 19.7468L18.2256 19.7513C17.7958 20.0693 17.5102 20.5433 17.4213 21.0858C17.3325 21.6284 17.4511 22.1746 17.7552 22.624C18.0593 23.0733 18.5127 23.3719 19.0317 23.4648C19.1441 23.4849 19.2567 23.4949 19.3685 23.4949C19.7713 23.4949 20.1637 23.3657 20.4996 23.1184L26.5664 18.7357L26.8476 19.1511C27.1357 19.5767 27.588 19.8198 28.0783 19.8198C28.1261 19.8198 28.1743 19.8175 28.2228 19.8128C28.7677 19.7601 29.2297 19.4183 29.4585 18.8986L31.5076 14.2441C31.7364 13.7243 31.6843 13.1352 31.3681 12.6682Z" fill="#FFD050"/>
<g clip-path="url(#clip1_2_636)">
<path d="M18.8505 18.2115L16.8579 18.3655C16.3034 18.4083 15.8096 18.6989 15.503 19.1627L13.2049 22.6384C12.9724 22.9901 12.9354 23.4303 13.106 23.8159C13.2766 24.2015 13.6272 24.4703 14.0439 24.5348L15.8683 24.8174C16.2951 22.5524 17.3168 20.293 18.8505 18.2115V18.2115Z" fill="#FFD050"/>
<path d="M23.1836 32.1316L23.4662 33.9561C23.5307 34.3728 23.7995 34.7234 24.185 34.8939C24.3454 34.9649 24.5152 34.9999 24.6842 34.9999C24.9215 34.9999 25.1572 34.9308 25.3626 34.795L28.8384 32.497C29.3022 32.1903 29.5928 31.6964 29.6355 31.142L29.7895 29.1494C27.7079 30.6832 25.4486 31.7049 23.1836 32.1316V32.1316Z" fill="#FFD050"/>
<path d="M22.4966 30.8667C22.5599 30.8667 22.6236 30.8614 22.6872 30.8508C23.6361 30.6922 24.5507 30.4249 25.4232 30.075L17.9244 22.5763C17.5746 23.4487 17.3073 24.3633 17.1486 25.3123C17.0861 25.6863 17.2116 26.0674 17.4797 26.3356L21.6639 30.5198C21.8865 30.7424 22.187 30.8667 22.4966 30.8667Z" fill="#FFD050"/>
<path d="M34.1661 22.1973C36.0011 18.6497 36.069 14.9007 35.9731 13.1425C35.9403 12.54 35.46 12.0597 34.8575 12.0269C34.5712 12.0113 34.2319 12 33.8495 12C31.8835 12 28.7726 12.2978 25.8027 13.834C23.4424 15.0548 20.3475 17.7429 18.5215 21.2757C18.543 21.2925 18.5641 21.3104 18.584 21.3302L26.6698 29.4161C26.6897 29.436 26.7075 29.457 26.7244 29.4786C30.2571 27.6525 32.9453 24.5576 34.1661 22.1973V22.1973ZM26.3731 16.8623C27.6866 15.5488 29.8241 15.5486 31.1377 16.8623C31.7741 17.4986 32.1245 18.3447 32.1245 19.2446C32.1245 20.1445 31.7741 20.9906 31.1377 21.627C30.481 22.2837 29.618 22.6121 28.7554 22.6122C27.8925 22.6122 27.03 22.2838 26.3731 21.627C25.7367 20.9906 25.3863 20.1445 25.3863 19.2446C25.3863 18.3447 25.7367 17.4986 26.3731 16.8623V16.8623Z" fill="#232536"/>
<path d="M27.3264 20.674C28.1146 21.4622 29.3971 21.4622 30.1853 20.674C30.5671 20.2922 30.7773 19.7846 30.7773 19.2446C30.7773 18.7047 30.5671 18.197 30.1853 17.8152C29.7912 17.4211 29.2735 17.2241 28.7559 17.2241C28.2382 17.2241 27.7205 17.4211 27.3265 17.8152C26.9447 18.197 26.7344 18.7047 26.7344 19.2446C26.7344 19.7846 26.9447 20.2922 27.3264 20.674Z" fill="#232536"/>
<path d="M13.6875 30.954C13.86 30.954 14.0324 30.8882 14.164 30.7566L16.3639 28.5566C16.6271 28.2935 16.6271 27.8668 16.3639 27.6037C16.1008 27.3405 15.6741 27.3405 15.411 27.6037L13.211 29.8036C12.9479 30.0668 12.9479 30.4934 13.211 30.7566C13.3426 30.8881 13.5151 30.954 13.6875 30.954Z" fill="#FFD050"/>
<path d="M18.3799 29.6201C18.1168 29.357 17.6901 29.357 17.427 29.6201L13.1974 33.8497C12.9342 34.1129 12.9342 34.5395 13.1974 34.8027C13.3289 34.9342 13.5014 35 13.6739 35C13.8463 35 14.0188 34.9342 14.1503 34.8026L18.3799 30.5731C18.6431 30.3099 18.6431 29.8833 18.3799 29.6201V29.6201Z" fill="#FFD050"/>
<path d="M19.4422 31.6358L17.2423 33.8358C16.9791 34.099 16.9791 34.5256 17.2423 34.7887C17.3739 34.9203 17.5463 34.9861 17.7187 34.9861C17.8911 34.9861 18.0636 34.9203 18.1952 34.7887L20.3951 32.5888C20.6583 32.3256 20.6583 31.899 20.3951 31.6358C20.132 31.3727 19.7054 31.3727 19.4422 31.6358Z" fill="#FFD050"/>
</g>
</g>
<defs>
<clipPath id="clip0_2_636">
<rect width="22.9565" height="24" fill="white" transform="translate(13 12)"/>
</clipPath>
<clipPath id="clip1_2_636">
<rect width="23" height="23" fill="white" transform="translate(13 12)"/>
</clipPath>
</defs>
</svg>
